<svg id="Group_1" data-name="Group 1" xmlns="http://www.w3.org/2000/svg" xmlns:xlink="http://www.w3.org/1999/xlink" viewBox="0 0 306 79.41"><defs><style>.cls-1{fill:#282828;}.cls-2{fill:url(#linear-gradient);}.cls-3{fill:#f9f9f9;}.cls-4{fill:#191919;}.cls-5{fill:#a1d2e7;}.cls-6{fill:#206ba5;}</style><linearGradient id="linear-gradient" x1="12.4" y1="50.48" x2="293.6" y2="50.48" gradientUnits="userSpaceOnUse"><stop offset="0" stop-color="#fff"/><stop offset="0.05" stop-color="red"/><stop offset="0.1" stop-color="#fff900"/><stop offset="0.15" stop-color="#00b441"/><stop offset="0.25" stop-color="#00eaff"/><stop offset="0.5" stop-color="#000692"/><stop offset="0.75" stop-color="#00eaff"/><stop offset="0.85" stop-color="#00b441"/><stop offset="0.9" stop-color="#fff900"/><stop offset="0.95" stop-color="red"/><stop offset="1" stop-color="#fff"/></linearGradient></defs><g id="Group_Image" data-name="Group Image"><path class="cls-1" d="M55.93,66.59a3.68,3.68,0,0,1-.34,1.63,3.36,3.36,0,0,1-.93,1.21,4.14,4.14,0,0,1-1.41.75,5.76,5.76,0,0,1-1.74.25,6.56,6.56,0,0,1-1.21-.11,7,7,0,0,1-1-.27,5.94,5.94,0,0,1-.74-.33,2.65,2.65,0,0,1-.41-.29.92.92,0,0,1-.17-.31,2.14,2.14,0,0,1-.05-.5,1.84,1.84,0,0,1,0-.36A.7.7,0,0,1,48,68a.27.27,0,0,1,.1-.13.29.29,0,0,1,.14,0,.85.85,0,0,1,.39.17,7.13,7.13,0,0,0,.66.37,6.14,6.14,0,0,0,1,.38,4.73,4.73,0,0,0,1.31.17,3.33,3.33,0,0,0,1-.15,2.43,2.43,0,0,0,.8-.42,1.82,1.82,0,0,0,.52-.68,2.22,2.22,0,0,0,.18-.92,1.69,1.69,0,0,0-.25-.94,2.69,2.69,0,0,0-.66-.69,7.5,7.5,0,0,0-.94-.54l-1.08-.5a9.93,9.93,0,0,1-1.07-.57,4.83,4.83,0,0,1-.94-.73,3.46,3.46,0,0,1-.67-1,3.3,3.3,0,0,1-.25-1.36A3.51,3.51,0,0,1,48.55,59a3,3,0,0,1,.83-1.07,3.64,3.64,0,0,1,1.25-.66,5.32,5.32,0,0,1,1.57-.22,5.1,5.1,0,0,1,.87.07,6.72,6.72,0,0,1,.83.2,6.37,6.37,0,0,1,.68.28,2.21,2.21,0,0,1,.4.25,1.13,1.13,0,0,1,.13.16.72.72,0,0,1,0,.14c0,.05,0,.12,0,.2s0,.19,0,.31a2.88,2.88,0,0,1,0,.32,1.19,1.19,0,0,1,0,.24.28.28,0,0,1-.09.14.21.21,0,0,1-.12.05.77.77,0,0,1-.35-.15L54,59a4.41,4.41,0,0,0-.81-.32,3.41,3.41,0,0,0-1-.15,2.69,2.69,0,0,0-.94.15,1.76,1.76,0,0,0-.66.38,1.42,1.42,0,0,0-.39.58,1.82,1.82,0,0,0-.13.7,1.66,1.66,0,0,0,.25.93,2.72,2.72,0,0,0,.66.7,6.59,6.59,0,0,0,1,.55L53,63c.37.18.73.36,1.08.57a4.25,4.25,0,0,1,1,.72,3.34,3.34,0,0,1,.67,1A3.27,3.27,0,0,1,55.93,66.59Z"/><path class="cls-1" d="M66,70a.25.25,0,0,1,0,.13.34.34,0,0,1-.13.1.7.7,0,0,1-.24.06l-.35,0-.38,0a.64.64,0,0,1-.23-.06.25.25,0,0,1-.12-.1.25.25,0,0,1,0-.13v-1.2A5.55,5.55,0,0,1,62.92,70a3.28,3.28,0,0,1-1.53.39,3.46,3.46,0,0,1-1.52-.3,2.78,2.78,0,0,1-1-.82,3.36,3.36,0,0,1-.55-1.21,7.21,7.21,0,0,1-.16-1.67V61a.25.25,0,0,1,0-.13.32.32,0,0,1,.14-.1.83.83,0,0,1,.26-.06l.4,0,.4,0a.77.77,0,0,1,.26.06.39.39,0,0,1,.14.1.25.25,0,0,1,0,.13v5.26a5.48,5.48,0,0,0,.11,1.27,2.45,2.45,0,0,0,.35.82,1.77,1.77,0,0,0,.6.52,1.86,1.86,0,0,0,.84.18A2.07,2.07,0,0,0,63,68.56a6.82,6.82,0,0,0,1.31-1.29V61a.25.25,0,0,1,0-.13.28.28,0,0,1,.13-.1.91.91,0,0,1,.26-.06l.41,0,.4,0a.7.7,0,0,1,.25.06.39.39,0,0,1,.14.1A.18.18,0,0,1,66,61Z"/><path class="cls-1" d="M74.29,61.54c0,.15,0,.27,0,.38a.63.63,0,0,1,0,.23.32.32,0,0,1-.07.13.17.17,0,0,1-.13,0,.54.54,0,0,1-.19,0l-.26-.09-.33-.08a1.61,1.61,0,0,0-.39,0,1.19,1.19,0,0,0-.49.1,1.68,1.68,0,0,0-.51.33,4.3,4.3,0,0,0-.56.61c-.19.25-.41.57-.64.93V70a.18.18,0,0,1,0,.13.34.34,0,0,1-.13.1.76.76,0,0,1-.25.06l-.41,0-.41,0a.76.76,0,0,1-.25-.06.24.24,0,0,1-.13-.1A.18.18,0,0,1,69,70V61a.25.25,0,0,1,0-.13.25.25,0,0,1,.12-.1.7.7,0,0,1,.23-.06l.38,0,.36,0a.64.64,0,0,1,.23.06.27.27,0,0,1,.11.1.18.18,0,0,1,0,.13v1.32a7.49,7.49,0,0,1,.7-.89,4,4,0,0,1,.61-.53,2,2,0,0,1,.58-.27A1.89,1.89,0,0,1,73,60.5l.3,0a1.4,1.4,0,0,1,.34,0l.33.09a.73.73,0,0,1,.2.1.24.24,0,0,1,.08.1.36.36,0,0,1,0,.11,1.06,1.06,0,0,1,0,.21Z"/><path class="cls-1" d="M81.13,57.24a1.28,1.28,0,0,1,0,.3c0,.08,0,.14,0,.19s0,.08-.07.09a.15.15,0,0,1-.1,0,.45.45,0,0,1-.17-.05l-.26-.1-.36-.1a2.17,2.17,0,0,0-.47,0,1.56,1.56,0,0,0-.64.12,1,1,0,0,0-.42.38,2,2,0,0,0-.23.66,5.6,5.6,0,0,0-.07,1v1h2a.18.18,0,0,1,.13,0,.33.33,0,0,1,.11.12.73.73,0,0,1,.07.21,2.88,2.88,0,0,1,0,.32,1.17,1.17,0,0,1-.09.53.28.28,0,0,1-.24.16h-2V70a.18.18,0,0,1,0,.13.32.32,0,0,1-.14.1.7.7,0,0,1-.25.06l-.4,0-.4,0a.77.77,0,0,1-.26-.06.39.39,0,0,1-.14-.1.25.25,0,0,1,0-.13V62.07H75.34a.26.26,0,0,1-.24-.16,1.2,1.2,0,0,1-.08-.53,1.57,1.57,0,0,1,0-.32.53.53,0,0,1,.06-.21.2.2,0,0,1,.1-.12.23.23,0,0,1,.14,0h1.27v-.93a6.35,6.35,0,0,1,.18-1.62A2.74,2.74,0,0,1,77.33,57a2.13,2.13,0,0,1,.91-.64,3.56,3.56,0,0,1,1.29-.21,3.08,3.08,0,0,1,.68.07,2.54,2.54,0,0,1,.51.14.82.82,0,0,1,.24.13.44.44,0,0,1,.1.16.7.7,0,0,1,.06.23A3.22,3.22,0,0,1,81.13,57.24Z"/><path class="cls-1" d="M88.86,70a.19.19,0,0,1-.08.18.5.5,0,0,1-.22.09,2.07,2.07,0,0,1-.41,0,2.42,2.42,0,0,1-.42,0,.5.5,0,0,1-.22-.09.21.21,0,0,1-.07-.18v-.91a4.57,4.57,0,0,1-1.32,1,3.58,3.58,0,0,1-1.54.35,4,4,0,0,1-1.29-.19,2.76,2.76,0,0,1-1-.53,2.5,2.5,0,0,1-.63-.87,2.86,2.86,0,0,1-.23-1.16,2.81,2.81,0,0,1,.31-1.33,2.66,2.66,0,0,1,.9-.93,4.48,4.48,0,0,1,1.42-.56,9.22,9.22,0,0,1,1.9-.18h1.25V64a3.68,3.68,0,0,0-.11-.92,1.72,1.72,0,0,0-.36-.67,1.59,1.59,0,0,0-.64-.4,3,3,0,0,0-1-.13,3.72,3.72,0,0,0-1.1.14,6.67,6.67,0,0,0-.85.32l-.62.32a.8.8,0,0,1-.36.15.21.21,0,0,1-.14,0,.43.43,0,0,1-.11-.12.58.58,0,0,1-.06-.21,1.14,1.14,0,0,1,0-.27,2.1,2.1,0,0,1,0-.4.56.56,0,0,1,.17-.28,2.26,2.26,0,0,1,.47-.3,4.14,4.14,0,0,1,.76-.32,6,6,0,0,1,1-.24,5.07,5.07,0,0,1,1-.1,5.38,5.38,0,0,1,1.66.22,2.66,2.66,0,0,1,1.1.65,2.43,2.43,0,0,1,.61,1.06,5,5,0,0,1,.19,1.47Zm-1.64-4.13H85.8a5.1,5.1,0,0,0-1.18.12,2.31,2.31,0,0,0-.84.34,1.37,1.37,0,0,0-.48.54,1.54,1.54,0,0,0-.16.73,1.45,1.45,0,0,0,.45,1.12,1.75,1.75,0,0,0,1.25.41,2.34,2.34,0,0,0,1.21-.33,5.37,5.37,0,0,0,1.17-1Z"/><path class="cls-1" d="M98.4,68.61a2.72,2.72,0,0,1,0,.3.66.66,0,0,1,0,.21,1.16,1.16,0,0,1-.06.15,1.59,1.59,0,0,1-.16.19,2.87,2.87,0,0,1-.43.31,3.3,3.3,0,0,1-.68.33,4.65,4.65,0,0,1-.82.24,4.77,4.77,0,0,1-2.64-.23,3.37,3.37,0,0,1-1.26-.94,4.44,4.44,0,0,1-.77-1.52,7.21,7.21,0,0,1-.27-2.07,7.05,7.05,0,0,1,.33-2.29,4.4,4.4,0,0,1,.89-1.57,3.48,3.48,0,0,1,1.34-.91,4.53,4.53,0,0,1,1.66-.3,4.6,4.6,0,0,1,.84.08,4.11,4.11,0,0,1,.75.21,3.85,3.85,0,0,1,.61.3,3.27,3.27,0,0,1,.38.29l.17.19a.87.87,0,0,1,.07.17.72.72,0,0,1,0,.22,2.63,2.63,0,0,1,0,.3,1.14,1.14,0,0,1-.09.54.25.25,0,0,1-.22.16.57.57,0,0,1-.34-.17,5.1,5.1,0,0,0-.5-.36,3.31,3.31,0,0,0-.73-.37,2.78,2.78,0,0,0-1-.16,2.08,2.08,0,0,0-1.83.91A4.66,4.66,0,0,0,93,65.49,6.33,6.33,0,0,0,93.17,67a3.18,3.18,0,0,0,.48,1.1,2.17,2.17,0,0,0,.79.66,2.59,2.59,0,0,0,1.07.21,2.64,2.64,0,0,0,1-.18,4.63,4.63,0,0,0,.74-.39l.54-.4a.64.64,0,0,1,.33-.17.16.16,0,0,1,.12,0,.33.33,0,0,1,.09.13,1.37,1.37,0,0,1,0,.25C98.4,68.36,98.4,68.48,98.4,68.61Z"/><path class="cls-1" d="M108.31,65.08a.72.72,0,0,1-.19.56.67.67,0,0,1-.45.16h-6a5.66,5.66,0,0,0,.15,1.36,2.68,2.68,0,0,0,.5,1,2.22,2.22,0,0,0,.92.66,3.56,3.56,0,0,0,1.38.23,5.66,5.66,0,0,0,1.15-.1,6.43,6.43,0,0,0,.88-.24c.24-.08.44-.16.6-.23a1.05,1.05,0,0,1,.36-.11.2.2,0,0,1,.13,0,.27.27,0,0,1,.08.1.72.72,0,0,1,0,.2,2.63,2.63,0,0,1,0,.3,1.55,1.55,0,0,1,0,.23.88.88,0,0,1,0,.17.58.58,0,0,1-.05.14l-.09.11a1.36,1.36,0,0,1-.33.18,3.94,3.94,0,0,1-.7.25,9.11,9.11,0,0,1-1,.21,6.66,6.66,0,0,1-1.21.1,5.5,5.5,0,0,1-2-.31,3.74,3.74,0,0,1-1.42-.93,4,4,0,0,1-.86-1.53,7.31,7.31,0,0,1-.29-2.15,6.76,6.76,0,0,1,.3-2.09,4.39,4.39,0,0,1,.87-1.58,3.77,3.77,0,0,1,1.37-1,4.55,4.55,0,0,1,1.8-.35,4.3,4.3,0,0,1,1.81.34,3.49,3.49,0,0,1,1.23.92,3.68,3.68,0,0,1,.71,1.36,5.9,5.9,0,0,1,.22,1.66Zm-1.66-.49a3.05,3.05,0,0,0-.58-2.05,2.22,2.22,0,0,0-1.82-.74,2.32,2.32,0,0,0-1.08.23,2.23,2.23,0,0,0-.78.61,2.82,2.82,0,0,0-.48.89,3.42,3.42,0,0,0-.19,1.06Z"/><path class="cls-1" d="M122.29,70a.22.22,0,0,1-.08.18.56.56,0,0,1-.22.09,2.07,2.07,0,0,1-.41,0,2.34,2.34,0,0,1-.42,0,.45.45,0,0,1-.22-.09.21.21,0,0,1-.07-.18v-.91a4.57,4.57,0,0,1-1.32,1,3.59,3.59,0,0,1-1.55.35,4.06,4.06,0,0,1-1.29-.19,2.8,2.8,0,0,1-1-.53,2.5,2.5,0,0,1-.63-.87,2.86,2.86,0,0,1-.23-1.16,2.7,2.7,0,0,1,.31-1.33,2.66,2.66,0,0,1,.9-.93,4.39,4.39,0,0,1,1.42-.56,9.15,9.15,0,0,1,1.9-.18h1.24V64a3.27,3.27,0,0,0-.11-.92,1.59,1.59,0,0,0-.35-.67,1.66,1.66,0,0,0-.64-.4,3,3,0,0,0-1-.13,3.72,3.72,0,0,0-1.1.14,7.51,7.51,0,0,0-.86.32l-.61.32a.82.82,0,0,1-.37.15.23.23,0,0,1-.14,0,.4.4,0,0,1-.1-.12.86.86,0,0,1-.07-.21,2.13,2.13,0,0,1,0-.27,1.45,1.45,0,0,1,0-.4.56.56,0,0,1,.17-.28,2,2,0,0,1,.47-.3,4.14,4.14,0,0,1,.76-.32,6.14,6.14,0,0,1,.94-.24,5.16,5.16,0,0,1,1-.1,5.27,5.27,0,0,1,1.65.22,2.64,2.64,0,0,1,1.11.65,2.53,2.53,0,0,1,.61,1.06,5,5,0,0,1,.19,1.47Zm-1.65-4.13h-1.41A5.2,5.2,0,0,0,118,66a2.33,2.33,0,0,0-.83.34,1.48,1.48,0,0,0-.49.54,1.67,1.67,0,0,0-.15.73,1.48,1.48,0,0,0,.44,1.12,1.77,1.77,0,0,0,1.26.41,2.37,2.37,0,0,0,1.21-.33,5.12,5.12,0,0,0,1.16-1Z"/><path class="cls-1" d="M133.12,70a.25.25,0,0,1,0,.13.34.34,0,0,1-.13.1.77.77,0,0,1-.26.06l-.4,0-.41,0a.7.7,0,0,1-.25-.06.34.34,0,0,1-.13-.1.18.18,0,0,1,0-.13V64.7a5.27,5.27,0,0,0-.12-1.25,2.72,2.72,0,0,0-.35-.81,1.58,1.58,0,0,0-.6-.52,1.9,1.9,0,0,0-.85-.18,2.09,2.09,0,0,0-1.24.44A6.55,6.55,0,0,0,127,63.67V70a.18.18,0,0,1,0,.13.34.34,0,0,1-.13.1.7.7,0,0,1-.25.06l-.41,0-.4,0a.77.77,0,0,1-.26-.06.28.28,0,0,1-.13-.1.25.25,0,0,1,0-.13V61a.25.25,0,0,1,0-.13.25.25,0,0,1,.12-.1.7.7,0,0,1,.24-.06l.37,0,.36,0a.58.58,0,0,1,.23.06.27.27,0,0,1,.11.1.18.18,0,0,1,0,.13v1.2a5.55,5.55,0,0,1,1.52-1.25,3.24,3.24,0,0,1,1.53-.4,3.29,3.29,0,0,1,1.52.31,2.6,2.6,0,0,1,1,.81,3.3,3.3,0,0,1,.55,1.2,7.19,7.19,0,0,1,.17,1.66Z"/><path class="cls-1" d="M143.88,70a.23.23,0,0,1,0,.14.19.19,0,0,1-.12.09.58.58,0,0,1-.22.06l-.34,0-.35,0a.7.7,0,0,1-.24-.06.25.25,0,0,1-.13-.09.33.33,0,0,1,0-.14v-1.2A5.84,5.84,0,0,1,140.92,70a3.34,3.34,0,0,1-1.68.43,3.47,3.47,0,0,1-1.7-.39,3.24,3.24,0,0,1-1.14-1,4.51,4.51,0,0,1-.63-1.55,8.06,8.06,0,0,1-.2-1.87,8,8,0,0,1,.25-2.1,4.46,4.46,0,0,1,.74-1.6,3.16,3.16,0,0,1,1.22-1,3.77,3.77,0,0,1,1.68-.36,3.08,3.08,0,0,1,1.45.35,5.09,5.09,0,0,1,1.3,1V56.61a.33.33,0,0,1,0-.13.23.23,0,0,1,.13-.1l.26-.06a2.17,2.17,0,0,1,.4,0,2.37,2.37,0,0,1,.41,0l.25.06a.27.27,0,0,1,.13.1.18.18,0,0,1,0,.13Zm-1.67-6.36a6.66,6.66,0,0,0-1.3-1.27,2.25,2.25,0,0,0-1.31-.43,1.85,1.85,0,0,0-1.07.3,2.19,2.19,0,0,0-.72.79,3.85,3.85,0,0,0-.4,1.11,6,6,0,0,0-.13,1.27,8.33,8.33,0,0,0,.11,1.33,3.85,3.85,0,0,0,.36,1.16,2.34,2.34,0,0,0,.7.82,1.86,1.86,0,0,0,1.08.3,2.25,2.25,0,0,0,.64-.09,2.55,2.55,0,0,0,.63-.3,5,5,0,0,0,.67-.54,11,11,0,0,0,.74-.83Z"/><path class="cls-1" d="M153.51,70a.23.23,0,0,1,0,.14.24.24,0,0,1-.14.09.9.9,0,0,1-.27.06,2.37,2.37,0,0,1-.41,0,2.58,2.58,0,0,1-.42,0,.9.9,0,0,1-.27-.06.28.28,0,0,1-.14-.09.33.33,0,0,1,0-.14V57.51a.22.22,0,0,1,.05-.14.36.36,0,0,1,.15-.1l.27-.06.4,0,.41,0,.27.06a.32.32,0,0,1,.14.1.21.21,0,0,1,0,.14Z"/><path class="cls-1" d="M164.55,70a.18.18,0,0,1,0,.13.28.28,0,0,1-.13.1.7.7,0,0,1-.25.06l-.4,0-.41,0a.7.7,0,0,1-.25-.06.28.28,0,0,1-.13-.1.18.18,0,0,1,0-.13V64.7a5.27,5.27,0,0,0-.12-1.25,2.72,2.72,0,0,0-.35-.81,1.58,1.58,0,0,0-.6-.52,1.93,1.93,0,0,0-.85-.18,2.12,2.12,0,0,0-1.25.44,6.53,6.53,0,0,0-1.3,1.29V70a.18.18,0,0,1,0,.13.34.34,0,0,1-.13.1.76.76,0,0,1-.25.06l-.41,0-.41,0a.76.76,0,0,1-.25-.06.24.24,0,0,1-.13-.1.18.18,0,0,1,0-.13V61a.25.25,0,0,1,0-.13.25.25,0,0,1,.12-.1.7.7,0,0,1,.23-.06l.38,0,.36,0a.64.64,0,0,1,.23.06.27.27,0,0,1,.11.1.18.18,0,0,1,0,.13v1.2a5.41,5.41,0,0,1,1.52-1.25,3.24,3.24,0,0,1,1.53-.4,3.32,3.32,0,0,1,1.52.31,2.67,2.67,0,0,1,1,.81,3.3,3.3,0,0,1,.55,1.2,7.24,7.24,0,0,1,.16,1.66Z"/><path class="cls-1" d="M172.09,69.32a2.74,2.74,0,0,1,0,.47.54.54,0,0,1-.13.25.83.83,0,0,1-.24.15,1.7,1.7,0,0,1-.36.11l-.44.08a3.55,3.55,0,0,1-.46,0,3.38,3.38,0,0,1-1.21-.19,1.91,1.91,0,0,1-.82-.56,2.42,2.42,0,0,1-.47-1,6.05,6.05,0,0,1-.14-1.36V62.07h-1.27a.28.28,0,0,1-.24-.16,1.17,1.17,0,0,1-.09-.53,1.51,1.51,0,0,1,0-.32.76.76,0,0,1,.06-.21.22.22,0,0,1,.11-.12.23.23,0,0,1,.14,0h1.26V58.54a.31.31,0,0,1,0-.13.34.34,0,0,1,.13-.1.81.81,0,0,1,.26-.07l.4,0,.41,0a.68.68,0,0,1,.25.07.28.28,0,0,1,.13.1.22.22,0,0,1,0,.13v2.15h2.32a.26.26,0,0,1,.15,0,.25.25,0,0,1,.1.12.73.73,0,0,1,.07.21,2.88,2.88,0,0,1,0,.32,1.17,1.17,0,0,1-.09.53.3.3,0,0,1-.25.16h-2.32v5a2.92,2.92,0,0,0,.28,1.41,1.06,1.06,0,0,0,1,.47,1.73,1.73,0,0,0,.41,0,2,2,0,0,0,.32-.1l.24-.09a.49.49,0,0,1,.18-.05.17.17,0,0,1,.1,0s.05.05.07.09a1.67,1.67,0,0,1,0,.19A2.36,2.36,0,0,1,172.09,69.32Z"/><path class="cls-1" d="M181.77,65.08a.72.72,0,0,1-.2.56.67.67,0,0,1-.45.16h-6a5.66,5.66,0,0,0,.15,1.36,2.68,2.68,0,0,0,.5,1,2.29,2.29,0,0,0,.92.66,3.56,3.56,0,0,0,1.38.23,5.66,5.66,0,0,0,1.15-.1,6.43,6.43,0,0,0,.88-.24c.24-.08.44-.16.6-.23a1.05,1.05,0,0,1,.36-.11.2.2,0,0,1,.13,0,.27.27,0,0,1,.08.1.72.72,0,0,1,.05.2,2.63,2.63,0,0,1,0,.3,1.55,1.55,0,0,1,0,.23.88.88,0,0,1,0,.17.58.58,0,0,1,0,.14l-.09.11a1.36,1.36,0,0,1-.33.18,3.94,3.94,0,0,1-.7.25,9.11,9.11,0,0,1-1,.21,6.66,6.66,0,0,1-1.21.1,5.54,5.54,0,0,1-1.95-.31,3.62,3.62,0,0,1-1.41-.93,3.88,3.88,0,0,1-.87-1.53,7.31,7.31,0,0,1-.29-2.15,6.76,6.76,0,0,1,.3-2.09,4.39,4.39,0,0,1,.87-1.58,3.86,3.86,0,0,1,1.37-1,4.55,4.55,0,0,1,1.8-.35,4.3,4.3,0,0,1,1.81.34,3.49,3.49,0,0,1,1.23.92,3.68,3.68,0,0,1,.71,1.36,5.89,5.89,0,0,1,.23,1.66Zm-1.67-.49a3.05,3.05,0,0,0-.58-2.05,2.2,2.2,0,0,0-1.82-.74,2.32,2.32,0,0,0-1.08.23,2.23,2.23,0,0,0-.78.61,2.82,2.82,0,0,0-.48.89,3.75,3.75,0,0,0-.19,1.06Z"/><path class="cls-1" d="M189.57,61.54c0,.15,0,.27,0,.38a1,1,0,0,1,0,.23.32.32,0,0,1-.08.13.17.17,0,0,1-.12,0,.58.58,0,0,1-.2,0l-.26-.09-.33-.08a1.61,1.61,0,0,0-.39,0,1.19,1.19,0,0,0-.49.1,1.68,1.68,0,0,0-.51.33,4.3,4.3,0,0,0-.56.61c-.19.25-.4.57-.64.93V70a.18.18,0,0,1,0,.13.28.28,0,0,1-.13.1.7.7,0,0,1-.25.06l-.41,0-.4,0a.77.77,0,0,1-.26-.06.28.28,0,0,1-.13-.1.25.25,0,0,1,0-.13V61a.25.25,0,0,1,0-.13.25.25,0,0,1,.12-.1.64.64,0,0,1,.23-.06l.37,0,.36,0a.58.58,0,0,1,.23.06.4.4,0,0,1,.12.1.25.25,0,0,1,0,.13v1.32a7.49,7.49,0,0,1,.7-.89,4,4,0,0,1,.62-.53,1.84,1.84,0,0,1,.57-.27,2,2,0,0,1,.58-.08l.3,0a1.4,1.4,0,0,1,.34,0l.33.09a.68.68,0,0,1,.21.1.35.35,0,0,1,.08.1l0,.11a1.06,1.06,0,0,1,0,.21C189.57,61.27,189.57,61.39,189.57,61.54Z"/><path class="cls-1" d="M196.41,57.24a1.21,1.21,0,0,1,0,.3.78.78,0,0,1,0,.19c0,.05,0,.08-.07.09a.15.15,0,0,1-.1,0,.51.51,0,0,1-.17-.05l-.26-.1-.35-.1a2.33,2.33,0,0,0-.48,0,1.48,1.48,0,0,0-.63.12,1,1,0,0,0-.43.38,2,2,0,0,0-.23.66,6.75,6.75,0,0,0-.07,1v1h2a.23.23,0,0,1,.14,0,.32.32,0,0,1,.1.12.73.73,0,0,1,.07.21,2.88,2.88,0,0,1,0,.32,1.17,1.17,0,0,1-.09.53.28.28,0,0,1-.24.16h-2V70a.18.18,0,0,1,0,.13.28.28,0,0,1-.13.1.83.83,0,0,1-.26.06l-.4,0-.4,0a.83.83,0,0,1-.26-.06.28.28,0,0,1-.13-.1.18.18,0,0,1,0-.13V62.07h-1.28a.26.26,0,0,1-.24-.16,1.36,1.36,0,0,1-.08-.53,2.88,2.88,0,0,1,0-.32.53.53,0,0,1,.06-.21.25.25,0,0,1,.1-.12.23.23,0,0,1,.14,0h1.28v-.93a6.39,6.39,0,0,1,.17-1.62A2.74,2.74,0,0,1,192.6,57a2.13,2.13,0,0,1,.91-.64,3.56,3.56,0,0,1,1.29-.21,3.08,3.08,0,0,1,.68.07,2.54,2.54,0,0,1,.51.14.82.82,0,0,1,.24.13.44.44,0,0,1,.1.16.7.7,0,0,1,.06.23A2.92,2.92,0,0,1,196.41,57.24Z"/><path class="cls-1" d="M204.14,70a.22.22,0,0,1-.08.18.63.63,0,0,1-.22.09,2.26,2.26,0,0,1-.42,0,2.22,2.22,0,0,1-.41,0,.5.5,0,0,1-.23-.09.21.21,0,0,1-.07-.18v-.91a4.32,4.32,0,0,1-1.32,1,3.54,3.54,0,0,1-1.54.35,4,4,0,0,1-1.29-.19,2.72,2.72,0,0,1-1-.53,2.4,2.4,0,0,1-.64-.87,2.86,2.86,0,0,1-.22-1.16,2.7,2.7,0,0,1,.31-1.33,2.63,2.63,0,0,1,.89-.93,4.54,4.54,0,0,1,1.43-.56,9.09,9.09,0,0,1,1.9-.18h1.24V64a3.68,3.68,0,0,0-.11-.92,1.5,1.5,0,0,0-.36-.67,1.55,1.55,0,0,0-.63-.4,3.08,3.08,0,0,0-1-.13,3.76,3.76,0,0,0-1.1.14,7.31,7.31,0,0,0-.85.32c-.25.12-.45.23-.61.32a.87.87,0,0,1-.37.15.23.23,0,0,1-.14,0,.43.43,0,0,1-.11-.12.58.58,0,0,1-.06-.21,2.13,2.13,0,0,1,0-.27,2.1,2.1,0,0,1,0-.4.64.64,0,0,1,.17-.28,2.26,2.26,0,0,1,.47-.3,4.45,4.45,0,0,1,.76-.32,6.28,6.28,0,0,1,.95-.24,5.07,5.07,0,0,1,1-.1,5.38,5.38,0,0,1,1.66.22,2.66,2.66,0,0,1,1.1.65,2.45,2.45,0,0,1,.62,1.06,5.35,5.35,0,0,1,.19,1.47Zm-1.65-4.13h-1.42a5.1,5.1,0,0,0-1.18.12,2.33,2.33,0,0,0-.83.34,1.39,1.39,0,0,0-.49.54,1.67,1.67,0,0,0-.16.73,1.45,1.45,0,0,0,.45,1.12,1.76,1.76,0,0,0,1.25.41,2.32,2.32,0,0,0,1.21-.33,5.37,5.37,0,0,0,1.17-1Z"/><path class="cls-1" d="M213.68,68.61c0,.12,0,.21,0,.3a1.12,1.12,0,0,1,0,.21,1.16,1.16,0,0,1-.06.15,1,1,0,0,1-.16.19,2.42,2.42,0,0,1-.43.31,3.22,3.22,0,0,1-.67.33,5.21,5.21,0,0,1-.82.24,4.63,4.63,0,0,1-.92.09,4.4,4.4,0,0,1-1.72-.32,3.22,3.22,0,0,1-1.26-.94,4.28,4.28,0,0,1-.78-1.52,7.6,7.6,0,0,1-.26-2.07,7.36,7.36,0,0,1,.32-2.29,4.27,4.27,0,0,1,.9-1.57,3.44,3.44,0,0,1,1.33-.91,4.53,4.53,0,0,1,1.66-.3,4.6,4.6,0,0,1,.84.08,4.11,4.11,0,0,1,.75.21,3.85,3.85,0,0,1,.61.3,3.57,3.57,0,0,1,.39.29,1.59,1.59,0,0,1,.16.19.89.89,0,0,1,.08.17,1.24,1.24,0,0,1,0,.22c0,.08,0,.18,0,.3a1.14,1.14,0,0,1-.09.54.26.26,0,0,1-.22.16.57.57,0,0,1-.35-.17,5.1,5.1,0,0,0-.5-.36,3.31,3.31,0,0,0-.73-.37,2.78,2.78,0,0,0-1-.16,2.1,2.1,0,0,0-1.83.91,4.74,4.74,0,0,0-.64,2.67,6.33,6.33,0,0,0,.17,1.53,3,3,0,0,0,.49,1.1,2,2,0,0,0,.79.66,2.54,2.54,0,0,0,1.06.21,2.6,2.6,0,0,0,1-.18,4.36,4.36,0,0,0,.75-.39l.53-.4a.66.66,0,0,1,.34-.17.19.19,0,0,1,.12,0,.32.32,0,0,1,.08.13,1.37,1.37,0,0,1,0,.25A3.11,3.11,0,0,1,213.68,68.61Z"/><path class="cls-1" d="M223.59,65.08a.72.72,0,0,1-.2.56.67.67,0,0,1-.45.16H217a5.66,5.66,0,0,0,.15,1.36,2.56,2.56,0,0,0,.51,1,2.19,2.19,0,0,0,.91.66,3.58,3.58,0,0,0,1.39.23,5.73,5.73,0,0,0,1.15-.1,6.68,6.68,0,0,0,.87-.24c.24-.08.45-.16.61-.23a1,1,0,0,1,.35-.11.2.2,0,0,1,.13,0s.06.06.09.1a.77.77,0,0,1,0,.2,2.36,2.36,0,0,1,0,.3c0,.09,0,.17,0,.23l0,.17a.58.58,0,0,1,0,.14.44.44,0,0,1-.09.11,1.36,1.36,0,0,1-.33.18,3.94,3.94,0,0,1-.7.25,9.11,9.11,0,0,1-1,.21,6.66,6.66,0,0,1-1.21.1,5.54,5.54,0,0,1-1.95-.31,3.62,3.62,0,0,1-1.41-.93,4,4,0,0,1-.87-1.53,7.31,7.31,0,0,1-.29-2.15,6.76,6.76,0,0,1,.3-2.09,4.55,4.55,0,0,1,.87-1.58,3.86,3.86,0,0,1,1.37-1,4.55,4.55,0,0,1,1.8-.35,4.3,4.3,0,0,1,1.81.34,3.49,3.49,0,0,1,1.23.92,3.68,3.68,0,0,1,.71,1.36,5.89,5.89,0,0,1,.23,1.66Zm-1.67-.49a3,3,0,0,0-.58-2.05,2.19,2.19,0,0,0-1.81-.74,2.29,2.29,0,0,0-1.08.23,2.23,2.23,0,0,0-.78.61,2.84,2.84,0,0,0-.49.89,3.75,3.75,0,0,0-.19,1.06Z"/><path class="cls-1" d="M237.69,69.49a2.92,2.92,0,0,1,0,.33,1,1,0,0,1-.07.23.33.33,0,0,1-.11.14.28.28,0,0,1-.16,0h-5.74a.7.7,0,0,1-.44-.16.65.65,0,0,1-.2-.54v-12a.21.21,0,0,1,0-.14.27.27,0,0,1,.14-.1l.27-.06.41,0,.42,0,.26.06a.27.27,0,0,1,.14.1.21.21,0,0,1,0,.14V68.74h4.66a.28.28,0,0,1,.16.05.36.36,0,0,1,.11.13.81.81,0,0,1,.07.22A3.32,3.32,0,0,1,237.69,69.49Z"/><path class="cls-1" d="M246.21,70a.22.22,0,0,1-.08.18.56.56,0,0,1-.22.09,2.15,2.15,0,0,1-.41,0,2.26,2.26,0,0,1-.42,0,.55.55,0,0,1-.23-.09.25.25,0,0,1-.07-.18v-.91a4.32,4.32,0,0,1-1.32,1,3.54,3.54,0,0,1-1.54.35,4.06,4.06,0,0,1-1.29-.19,2.8,2.8,0,0,1-1-.53,2.5,2.5,0,0,1-.63-.87,2.66,2.66,0,0,1,1-3.42,4.54,4.54,0,0,1,1.43-.56,9.15,9.15,0,0,1,1.9-.18h1.24V64a3.27,3.27,0,0,0-.11-.92,1.59,1.59,0,0,0-.35-.67,1.66,1.66,0,0,0-.64-.4,3,3,0,0,0-1-.13,3.69,3.69,0,0,0-1.09.14,7.51,7.51,0,0,0-.86.32l-.61.32a.82.82,0,0,1-.37.15.23.23,0,0,1-.14,0,.4.4,0,0,1-.1-.12.58.58,0,0,1-.07-.21,2.13,2.13,0,0,1,0-.27,1.45,1.45,0,0,1,0-.4.56.56,0,0,1,.17-.28,2.14,2.14,0,0,1,.46-.3,4.25,4.25,0,0,1,.77-.32,6.14,6.14,0,0,1,.94-.24,5.16,5.16,0,0,1,1-.1,5.32,5.32,0,0,1,1.65.22,2.64,2.64,0,0,1,1.11.65,2.53,2.53,0,0,1,.61,1.06,5,5,0,0,1,.19,1.47Zm-1.65-4.13h-1.41A5.2,5.2,0,0,0,242,66a2.33,2.33,0,0,0-.83.34,1.48,1.48,0,0,0-.49.54,1.67,1.67,0,0,0-.15.73,1.48,1.48,0,0,0,.44,1.12,1.76,1.76,0,0,0,1.25.41,2.32,2.32,0,0,0,1.21-.33,5.15,5.15,0,0,0,1.17-1Z"/><path class="cls-1" d="M257.57,65.35a8,8,0,0,1-.26,2.11,4.65,4.65,0,0,1-.75,1.6,3.32,3.32,0,0,1-1.22,1,3.82,3.82,0,0,1-1.66.35,3.38,3.38,0,0,1-.8-.09,2.64,2.64,0,0,1-.72-.27,5.48,5.48,0,0,1-.7-.48,9.46,9.46,0,0,1-.74-.71V70a.23.23,0,0,1,0,.14.25.25,0,0,1-.13.09.7.7,0,0,1-.23.06l-.34,0-.35,0a.7.7,0,0,1-.23-.06.19.19,0,0,1-.12-.09.32.32,0,0,1,0-.14V56.57a.23.23,0,0,1,0-.14.24.24,0,0,1,.13-.1l.25-.06.41,0,.41,0,.25.06a.34.34,0,0,1,.13.1.23.23,0,0,1,0,.14V62a6.82,6.82,0,0,1,.78-.7,4.19,4.19,0,0,1,.74-.45,3,3,0,0,1,.72-.26,3.69,3.69,0,0,1,.76-.08,3.37,3.37,0,0,1,1.68.39,3.2,3.2,0,0,1,1.14,1,4.76,4.76,0,0,1,.64,1.54A8.65,8.65,0,0,1,257.57,65.35Zm-1.72.19a8.58,8.58,0,0,0-.11-1.35,3.7,3.7,0,0,0-.37-1.15,2.26,2.26,0,0,0-.69-.81,1.86,1.86,0,0,0-1.08-.3A2.3,2.3,0,0,0,253,62a2.45,2.45,0,0,0-.64.3,5,5,0,0,0-.67.54,8.08,8.08,0,0,0-.74.83V67.3a7.28,7.28,0,0,0,1.31,1.27,2.25,2.25,0,0,0,1.31.43,1.89,1.89,0,0,0,1.07-.3,2.33,2.33,0,0,0,.72-.8,3.85,3.85,0,0,0,.4-1.11A5.83,5.83,0,0,0,255.85,65.54Z"/><path class="cls-2" d="M293.6,55.23a898.41,898.41,0,0,0-281.2,0c.08.52.17,1,.25,1.56a897.65,897.65,0,0,1,280.7,0Z"/><path class="cls-3" d="M26.88,39.37a12.14,12.14,0,0,1-4.37-.76A9,9,0,0,1,19,36.28a10.24,10.24,0,0,1-2.16-3.8,16.24,16.24,0,0,1-.71-5A15.64,15.64,0,0,1,17,22.3a11.23,11.23,0,0,1,2.27-4,9.7,9.7,0,0,1,3.56-2.48A11.8,11.8,0,0,1,27.25,15a10.88,10.88,0,0,1,1.92.17,11.4,11.4,0,0,1,1.7.43,9,9,0,0,1,1.47.64,5.05,5.05,0,0,1,1.07.76,3,3,0,0,1,.54.68,2.61,2.61,0,0,1,.28.77,5.69,5.69,0,0,1,.1.72q0,.35,0,.87c0,.37,0,.69,0,.95a3.89,3.89,0,0,1-.2.93,2.16,2.16,0,0,1-.6.88,1.81,1.81,0,0,1-1.2.44,2.4,2.4,0,0,1-1.48-.57,8.87,8.87,0,0,0-.81-.53,6.87,6.87,0,0,0-1.14-.51,4.7,4.7,0,0,0-1.47-.2,3.1,3.1,0,0,0-2.69,1.36,5.38,5.38,0,0,0-.81,1.79,10.07,10.07,0,0,0-.31,2.64A10.18,10.18,0,0,0,23.94,30a4.72,4.72,0,0,0,.81,1.7,3,3,0,0,0,1.13.87,4.27,4.27,0,0,0,1.66.31,5,5,0,0,0,1.5-.2,7.13,7.13,0,0,0,1.15-.48c.35-.19.63-.35.85-.5a2.51,2.51,0,0,1,1.4-.51,1.81,1.81,0,0,1,1.78,1.3,3.87,3.87,0,0,1,.16.87,9.84,9.84,0,0,1,0,1q0,.48,0,.81a5.15,5.15,0,0,1-.1.69,3.49,3.49,0,0,1-.27.71,3.29,3.29,0,0,1-.48.63,4.56,4.56,0,0,1-1,.73,9.19,9.19,0,0,1-1.46.65,11.36,11.36,0,0,1-1.9.51A12.68,12.68,0,0,1,26.88,39.37Z"/><path class="cls-3" d="M47.45,39.13c-.45,0-.83,0-1.13-.05a4.23,4.23,0,0,1-1-.2,2,2,0,0,1-1-.66A1.83,1.83,0,0,1,44,37.05V28.87a5.33,5.33,0,0,0-.11-1.28,2,2,0,0,0-.23-.57.6.6,0,0,0-.21-.18,1,1,0,0,0-.42-.08,1.34,1.34,0,0,0-.72.29,6.2,6.2,0,0,0-1,1v9a1.83,1.83,0,0,1-.41,1.17,2.07,2.07,0,0,1-1,.67,4.32,4.32,0,0,1-.94.19c-.3,0-.67.05-1.13.05s-.83,0-1.13-.05a4.32,4.32,0,0,1-.94-.19,2.24,2.24,0,0,1-1-.66,1.9,1.9,0,0,1-.41-1.18V15.92a1.93,1.93,0,0,1,.38-1.15,2.12,2.12,0,0,1,1-.7,4,4,0,0,1,.94-.22,11.24,11.24,0,0,1,2.32,0,4.17,4.17,0,0,1,.95.22,2.14,2.14,0,0,1,1,.7,1.91,1.91,0,0,1,.38,1.15V21l.08,0a6.82,6.82,0,0,1,2.87-.64A7,7,0,0,1,47.3,21a5.7,5.7,0,0,1,2.15,1.75,6.83,6.83,0,0,1,1.14,2.47,12.9,12.9,0,0,1,.31,3.05v8.79a1.9,1.9,0,0,1-.4,1.17,2.16,2.16,0,0,1-1,.66,3.75,3.75,0,0,1-1,.2C48.27,39.11,47.9,39.13,47.45,39.13Z"/><path class="cls-3" d="M60.26,39.4a12,12,0,0,1-3.81-.56,7.42,7.42,0,0,1-3-1.81A7.53,7.53,0,0,1,51.7,34,13.06,13.06,0,0,1,51.15,30a12.82,12.82,0,0,1,.57-3.89A8.72,8.72,0,0,1,53.46,23a7.83,7.83,0,0,1,2.83-2,10.33,10.33,0,0,1,7.24,0,7.07,7.07,0,0,1,2.63,1.85,7.47,7.47,0,0,1,1.5,2.76,11.07,11.07,0,0,1,.44,3.21v.64a3,3,0,0,1-.71,2.08,2.61,2.61,0,0,1-2,.81H58.37a1.41,1.41,0,0,0,.31.52,1.51,1.51,0,0,0,.65.41,3.68,3.68,0,0,0,1.3.19,8.16,8.16,0,0,0,1.59-.13c.48-.09.89-.19,1.23-.29l.87-.31a3.16,3.16,0,0,1,1.16-.25,1.86,1.86,0,0,1,1,.25,1.82,1.82,0,0,1,.75.86,2.65,2.65,0,0,1,.21.86c0,.22,0,.48,0,.8s0,.5,0,.69a4.14,4.14,0,0,1-.07.6,2.29,2.29,0,0,1-.24.71,2.07,2.07,0,0,1-.39.54,2.73,2.73,0,0,1-1.07.66,10.82,10.82,0,0,1-1.38.44c-.54.13-1.14.25-1.8.35A15.31,15.31,0,0,1,60.26,39.4Zm.86-12.53a1.63,1.63,0,0,0-.21-.37c-.08-.11-.3-.4-1.1-.4a1.63,1.63,0,0,0-.69.13,1.32,1.32,0,0,0-.46.38,1.67,1.67,0,0,0-.17.26Z"/><path class="cls-3" d="M81.67,39.13c-.46,0-.83,0-1.13-.05a4.33,4.33,0,0,1-1-.2,2.07,2.07,0,0,1-1-.66,1.83,1.83,0,0,1-.41-1.17V28.87a6.23,6.23,0,0,0-.1-1.28,1.78,1.78,0,0,0-.24-.57.52.52,0,0,0-.21-.18,1,1,0,0,0-.42-.08,1.37,1.37,0,0,0-.72.29,5.82,5.82,0,0,0-1,1v9a1.83,1.83,0,0,1-.41,1.17,2.15,2.15,0,0,1-1,.67,4.22,4.22,0,0,1-.93.19c-.31,0-.68.05-1.14.05a11.17,11.17,0,0,1-1.12-.05,4.3,4.3,0,0,1-1-.19,2.24,2.24,0,0,1-1-.66,1.9,1.9,0,0,1-.41-1.18V22.72a2,2,0,0,1,.32-1.08,2,2,0,0,1,1-.75,4,4,0,0,1,.88-.2,7,7,0,0,1,1-.06,9.35,9.35,0,0,1,1,.05,3.06,3.06,0,0,1,.93.24,2,2,0,0,1,.84.65c.23-.15.46-.28.68-.4a6.88,6.88,0,0,1,3.23-.81,7,7,0,0,1,3.09.63,5.67,5.67,0,0,1,2.15,1.74,6.74,6.74,0,0,1,1.14,2.45,12.72,12.72,0,0,1,.31,3v8.86a1.9,1.9,0,0,1-.4,1.17,2.05,2.05,0,0,1-1,.66,3.76,3.76,0,0,1-.95.2C82.48,39.11,82.11,39.13,81.67,39.13Z"/><path class="cls-3" d="M114.21,39.13c-.65,0-1.18,0-1.57-.05a4.35,4.35,0,0,1-1.28-.24,2.41,2.41,0,0,1-1.19-1,3.52,3.52,0,0,1-.41-1.08l-1.89-7.5-1.8,7.54a3.26,3.26,0,0,1-.4,1,2.42,2.42,0,0,1-1.13.93,4.19,4.19,0,0,1-1.3.27c-.39,0-.89.05-1.53.05s-1.19,0-1.59-.05a4.28,4.28,0,0,1-1.27-.24,2.41,2.41,0,0,1-1.19-1,3.46,3.46,0,0,1-.41-1L92.53,18.74a7.07,7.07,0,0,1-.21-1.2A2,2,0,0,1,93,15.89a2.42,2.42,0,0,1,1.48-.57c.34,0,.8-.05,1.4-.05s1,0,1.28,0a3.62,3.62,0,0,1,1.11.2,2,2,0,0,1,1.08,1,3,3,0,0,1,.25.87l2.27,9.87,2.36-9.87a3.23,3.23,0,0,1,.31-.84,2,2,0,0,1,1.06-.94,3.71,3.71,0,0,1,1.11-.25c.32,0,.75-.05,1.28-.05s1,0,1.33,0a3.59,3.59,0,0,1,1.16.24,2.19,2.19,0,0,1,1.06.9,3.37,3.37,0,0,1,.34,1l2.47,10,2.31-10.07a3.63,3.63,0,0,1,.21-.69,2,2,0,0,1,1-1,3.41,3.41,0,0,1,1.12-.27c.31,0,.74-.05,1.3-.05s1,0,1.25.05A2.28,2.28,0,0,1,123,16a2,2,0,0,1,.57,1.64,7.82,7.82,0,0,1-.2,1.18l-4.78,18.11a3.26,3.26,0,0,1-.49,1.1,2.5,2.5,0,0,1-1.19.86,4.26,4.26,0,0,1-1.24.24C115.28,39.11,114.8,39.13,114.21,39.13Z"/><path class="cls-3" d="M130.55,39.4a12,12,0,0,1-3.81-.56,7.42,7.42,0,0,1-3-1.81A7.66,7.66,0,0,1,122,34a13.4,13.4,0,0,1-.54-3.94,12.51,12.51,0,0,1,.57-3.89A8.58,8.58,0,0,1,123.75,23a7.74,7.74,0,0,1,2.83-2,10.33,10.33,0,0,1,7.24,0,7.07,7.07,0,0,1,2.63,1.85,7.47,7.47,0,0,1,1.5,2.76,11.42,11.42,0,0,1,.44,3.21v.64a3,3,0,0,1-.71,2.08,2.61,2.61,0,0,1-2,.81h-7.06a1.41,1.41,0,0,0,.31.52,1.51,1.51,0,0,0,.65.41,3.62,3.62,0,0,0,1.29.19,8.27,8.27,0,0,0,1.6-.13c.48-.09.89-.19,1.23-.29l.87-.31a3.16,3.16,0,0,1,1.16-.25,1.86,1.86,0,0,1,1,.25,1.82,1.82,0,0,1,.75.86,2.65,2.65,0,0,1,.21.86c0,.22,0,.48,0,.8s0,.5,0,.69a4.14,4.14,0,0,1-.07.6,2.58,2.58,0,0,1-.24.71,2.07,2.07,0,0,1-.39.54,2.73,2.73,0,0,1-1.07.66,11.37,11.37,0,0,1-1.38.44c-.54.13-1.14.25-1.8.35A15.42,15.42,0,0,1,130.55,39.4Zm.85-12.53a1.31,1.31,0,0,0-.2-.37c-.08-.11-.3-.4-1.1-.4a1.71,1.71,0,0,0-.7.13,1.38,1.38,0,0,0-.45.38,1.67,1.67,0,0,0-.17.26Z"/><path class="cls-3" d="M142.3,39.13a11.17,11.17,0,0,1-1.12-.05,4.3,4.3,0,0,1-1-.19,2.24,2.24,0,0,1-1-.66,1.9,1.9,0,0,1-.41-1.18V22.75a1.86,1.86,0,0,1,.41-1.18A2,2,0,0,1,140,21a2.66,2.66,0,0,1-.54-.39,3.5,3.5,0,0,1-.92-2.66,3.61,3.61,0,0,1,.93-2.73,5.1,5.1,0,0,1,5.68,0,3.49,3.49,0,0,1,.93,2.68,3.54,3.54,0,0,1-.95,2.73,2.59,2.59,0,0,1-.53.39,2.17,2.17,0,0,1,.77.58,1.9,1.9,0,0,1,.41,1.18v14.3a1.83,1.83,0,0,1-.41,1.17,2.15,2.15,0,0,1-1,.67,4.22,4.22,0,0,1-.93.19C143.13,39.11,142.76,39.13,142.3,39.13Z"/><path class="cls-3" d="M148.42,25.88a7.27,7.27,0,0,1-.91-.05,2.36,2.36,0,0,1-1-.32,1.68,1.68,0,0,1-.8-1.35,2,2,0,0,1,.2-1L147.71,19V16.81a3.88,3.88,0,0,1,.22-1.4,2.49,2.49,0,0,1,.94-1.2,3,3,0,0,1,1.3-.48,10.4,10.4,0,0,1,1.21-.07,9.77,9.77,0,0,1,1.16.07,3,3,0,0,1,1.29.49,2.51,2.51,0,0,1,.92,1.22,4,4,0,0,1,.2,1.37,10.85,10.85,0,0,1-.07,1.32,7,7,0,0,1-.26,1.24,6.57,6.57,0,0,1-.47,1.13,8.76,8.76,0,0,1-.67,1.1l-2.14,3.07a3.11,3.11,0,0,1-.52.56,2.55,2.55,0,0,1-.74.42,3,3,0,0,1-.8.18A6.64,6.64,0,0,1,148.42,25.88Z"/><path class="cls-3" d="M159.28,39.4a11.33,11.33,0,0,1-1.77-.14,11.6,11.6,0,0,1-1.51-.35,8.93,8.93,0,0,1-1.17-.46,3.67,3.67,0,0,1-.91-.61,2.51,2.51,0,0,1-.67-1.2,5.57,5.57,0,0,1-.15-1.44c0-.38,0-.68,0-.91a3.14,3.14,0,0,1,.19-.8,1.8,1.8,0,0,1,.78-1,1.88,1.88,0,0,1,1-.25,2.4,2.4,0,0,1,1.25.4c.2.11.45.24.75.38a8.48,8.48,0,0,0,1,.38,4.2,4.2,0,0,0,1.13.14,2.52,2.52,0,0,0,.6-.06,1.15,1.15,0,0,0,.31-.13h0a1.77,1.77,0,0,0-.32-.22,8.36,8.36,0,0,0-.93-.4c-.43-.16-.88-.33-1.33-.52a12.69,12.69,0,0,1-1.43-.71,6.49,6.49,0,0,1-1.44-1.12,5.48,5.48,0,0,1-1.07-1.68,6,6,0,0,1-.41-2.29,5.77,5.77,0,0,1,.54-2.49,5.45,5.45,0,0,1,1.56-2,7,7,0,0,1,2.31-1.21,9.88,9.88,0,0,1,2.86-.4,11,11,0,0,1,1.53.11,12.62,12.62,0,0,1,1.32.28,6.58,6.58,0,0,1,1.1.4,3.89,3.89,0,0,1,.77.46,2.06,2.06,0,0,1,.6.7A2.56,2.56,0,0,1,166,23a5.12,5.12,0,0,1,.08.55c0,.2,0,.46,0,.76s0,.62,0,.83a3.25,3.25,0,0,1-.16.78,1.74,1.74,0,0,1-.79,1,1.86,1.86,0,0,1-.94.25,2.35,2.35,0,0,1-1.15-.35,6.54,6.54,0,0,0-.63-.29,6.43,6.43,0,0,0-.88-.3,3.63,3.63,0,0,0-1-.12,2,2,0,0,0-.56.06l-.05,0a2,2,0,0,0,.26.16,8,8,0,0,0,1,.4c.45.16.89.33,1.35.52a11.13,11.13,0,0,1,1.44.69,6.43,6.43,0,0,1,1.47,1.12,5.49,5.49,0,0,1,1.09,1.67,5.69,5.69,0,0,1,.42,2.26,6.24,6.24,0,0,1-.6,2.78,5.72,5.72,0,0,1-1.73,2.08A7.44,7.44,0,0,1,162.14,39,11,11,0,0,1,159.28,39.4Z"/><path class="cls-4" d="M33,34.44c0,.27,0,.5,0,.69s0,.34-.07.48a1.86,1.86,0,0,1-.13.34,1.68,1.68,0,0,1-.26.33,3.49,3.49,0,0,1-.68.48,8.73,8.73,0,0,1-1.24.55,10.6,10.6,0,0,1-1.67.44A11.59,11.59,0,0,1,23,37.27a7.56,7.56,0,0,1-2.92-2A8.82,8.82,0,0,1,18.25,32a14.55,14.55,0,0,1-.64-4.56,14.46,14.46,0,0,1,.71-4.7,9.8,9.8,0,0,1,2-3.46,8.27,8.27,0,0,1,3.05-2.12,10.27,10.27,0,0,1,3.91-.72,10.08,10.08,0,0,1,1.67.14A11.39,11.39,0,0,1,30.4,17a7.83,7.83,0,0,1,1.23.54,3.82,3.82,0,0,1,.77.52,2.14,2.14,0,0,1,.29.36,1.15,1.15,0,0,1,.13.37,3.6,3.6,0,0,1,.07.53c0,.21,0,.46,0,.76s0,.59,0,.82a2.18,2.18,0,0,1-.12.54.71.71,0,0,1-.19.31.39.39,0,0,1-.26.09,1.1,1.1,0,0,1-.61-.28,10.59,10.59,0,0,0-.95-.62,8,8,0,0,0-1.4-.63A5.89,5.89,0,0,0,27.42,20,4.56,4.56,0,0,0,23.56,22a6.77,6.77,0,0,0-1,2.27,11.55,11.55,0,0,0-.36,3,11.81,11.81,0,0,0,.38,3.17,6.09,6.09,0,0,0,1.08,2.21,4.22,4.22,0,0,0,1.68,1.29,5.65,5.65,0,0,0,2.23.43,6.22,6.22,0,0,0,1.94-.27,9.12,9.12,0,0,0,1.41-.58c.39-.22.71-.41,1-.58a1.22,1.22,0,0,1,.59-.26.37.37,0,0,1,.41.32,2.08,2.08,0,0,1,.1.54C33,33.75,33,34.06,33,34.44Z"/><path class="cls-4" d="M49.46,37.05a.47.47,0,0,1-.09.28.85.85,0,0,1-.33.2,3.11,3.11,0,0,1-.61.12c-.27,0-.59,0-1,0s-.72,0-1,0a3.08,3.08,0,0,1-.62-.12.73.73,0,0,1-.32-.2.42.42,0,0,1-.1-.28V28.87a7,7,0,0,0-.15-1.64,3.28,3.28,0,0,0-.44-1,2.16,2.16,0,0,0-.75-.66A2.41,2.41,0,0,0,43,25.32a2.73,2.73,0,0,0-1.56.56,8.71,8.71,0,0,0-1.64,1.64v9.53a.47.47,0,0,1-.09.28.85.85,0,0,1-.33.2,3.4,3.4,0,0,1-.62.12c-.26,0-.58,0-1,0s-.72,0-1,0a3.4,3.4,0,0,1-.62-.12.85.85,0,0,1-.33-.2.47.47,0,0,1-.09-.28V15.92a.52.52,0,0,1,.09-.29.85.85,0,0,1,.33-.21,2.61,2.61,0,0,1,.62-.14,9.63,9.63,0,0,1,2,0,2.61,2.61,0,0,1,.62.14.85.85,0,0,1,.33.21.52.52,0,0,1,.09.29v7.92A7.78,7.78,0,0,1,42,22.31a5.29,5.29,0,0,1,2.26-.51,5.73,5.73,0,0,1,2.47.48A4.3,4.3,0,0,1,48.3,23.6a5.44,5.44,0,0,1,.89,1.95,11.75,11.75,0,0,1,.27,2.71Z"/><path class="cls-4" d="M66.67,29.46a1.57,1.57,0,0,1-.33,1.1,1.21,1.21,0,0,1-.91.35H56.71a6.13,6.13,0,0,0,.21,1.66,3.32,3.32,0,0,0,.69,1.27,3.17,3.17,0,0,0,1.22.8,5.33,5.33,0,0,0,1.8.27,10.3,10.3,0,0,0,1.86-.15c.53-.11,1-.22,1.39-.34s.71-.24,1-.34a1.86,1.86,0,0,1,.63-.15.6.6,0,0,1,.24,0,.53.53,0,0,1,.16.21,1.49,1.49,0,0,1,.09.41c0,.17,0,.39,0,.66s0,.44,0,.6a4.23,4.23,0,0,1,0,.43,1.5,1.5,0,0,1-.1.3.91.91,0,0,1-.17.23,2.1,2.1,0,0,1-.57.31,10.17,10.17,0,0,1-1.19.37,14.25,14.25,0,0,1-1.65.32,12.6,12.6,0,0,1-2,.14,10.57,10.57,0,0,1-3.35-.48,5.76,5.76,0,0,1-3.84-3.94,11.43,11.43,0,0,1-.48-3.5,11.16,11.16,0,0,1,.5-3.44A7.27,7.27,0,0,1,54.54,24a6.31,6.31,0,0,1,2.3-1.63,8.92,8.92,0,0,1,6.14,0,5.52,5.52,0,0,1,2.09,1.47A6,6,0,0,1,66.28,26a9.5,9.5,0,0,1,.39,2.79Zm-3.92-1.15a4.16,4.16,0,0,0-.69-2.68,2.62,2.62,0,0,0-2.25-1,2.94,2.94,0,0,0-1.34.29,2.59,2.59,0,0,0-.95.78,3.51,3.51,0,0,0-.58,1.16,5.78,5.78,0,0,0-.23,1.42Z"/><path class="cls-4" d="M83.67,37.05a.47.47,0,0,1-.09.28.8.8,0,0,1-.32.2,3.24,3.24,0,0,1-.62.12c-.26,0-.59,0-1,0s-.73,0-1,0a3.24,3.24,0,0,1-.62-.12.73.73,0,0,1-.32-.2.48.48,0,0,1-.1-.28V28.87a7,7,0,0,0-.15-1.64,3.28,3.28,0,0,0-.44-1,2,2,0,0,0-.75-.66,2.38,2.38,0,0,0-1.07-.23,2.68,2.68,0,0,0-1.55.56A8.16,8.16,0,0,0,74,27.52v9.53a.42.42,0,0,1-.1.28.72.72,0,0,1-.33.2,3.24,3.24,0,0,1-.62.12c-.25,0-.58,0-1,0s-.72,0-1,0a3.27,3.27,0,0,1-.61-.12.72.72,0,0,1-.33-.2.42.42,0,0,1-.1-.28V22.72a.51.51,0,0,1,.08-.28.55.55,0,0,1,.29-.2,2.14,2.14,0,0,1,.54-.13c.22,0,.49,0,.82,0s.63,0,.86,0a1.87,1.87,0,0,1,.52.13.55.55,0,0,1,.26.2.44.44,0,0,1,.08.28v1.65a9.4,9.4,0,0,1,2.42-1.93,5.55,5.55,0,0,1,2.56-.64,5.7,5.7,0,0,1,2.47.48,4.29,4.29,0,0,1,1.62,1.31,5.32,5.32,0,0,1,.89,1.94,11.41,11.41,0,0,1,.27,2.66Z"/><path class="cls-4" d="M117.2,36.52a1.93,1.93,0,0,1-.27.61,1,1,0,0,1-.5.36,3.66,3.66,0,0,1-.87.16c-.35,0-.8,0-1.35,0s-1.1,0-1.47,0a3.47,3.47,0,0,1-.88-.16.89.89,0,0,1-.46-.36,2,2,0,0,1-.23-.61l-3.32-13.18h0l-3.15,13.18a1.83,1.83,0,0,1-.23.6,1,1,0,0,1-.45.36,3.25,3.25,0,0,1-.86.17c-.35,0-.83,0-1.42,0s-1.11,0-1.48,0a3.47,3.47,0,0,1-.88-.16.85.85,0,0,1-.46-.36,1.94,1.94,0,0,1-.24-.61L93.92,18.38a5.47,5.47,0,0,1-.16-.91A.57.57,0,0,1,94,17a1.13,1.13,0,0,1,.66-.22c.3,0,.73,0,1.27,0l1.2,0a2.37,2.37,0,0,1,.67.12.51.51,0,0,1,.3.25,1.9,1.9,0,0,1,.13.48l3.65,15.92h0l3.79-15.81a2.23,2.23,0,0,1,.17-.5.7.7,0,0,1,.35-.3,3.07,3.07,0,0,1,.69-.14c.29,0,.67,0,1.15,0s.93,0,1.23,0a2.27,2.27,0,0,1,.71.14.68.68,0,0,1,.36.3,1.67,1.67,0,0,1,.18.51l3.92,15.81h0l3.64-15.87a3.1,3.1,0,0,1,.13-.45.63.63,0,0,1,.31-.29,2.47,2.47,0,0,1,.64-.14c.28,0,.67,0,1.17,0a10.53,10.53,0,0,1,1.1,0A.89.89,0,0,1,122,17a.65.65,0,0,1,.16.52,7.72,7.72,0,0,1-.17.94Z"/><path class="cls-4" d="M137,29.46a1.57,1.57,0,0,1-.33,1.1,1.17,1.17,0,0,1-.9.35H127a6.13,6.13,0,0,0,.21,1.66,3.32,3.32,0,0,0,.69,1.27,3.17,3.17,0,0,0,1.22.8,5.31,5.31,0,0,0,1.79.27,10.33,10.33,0,0,0,1.87-.15c.53-.11,1-.22,1.39-.34s.71-.24,1-.34a1.81,1.81,0,0,1,.63-.15.6.6,0,0,1,.24,0,.53.53,0,0,1,.16.21,1.49,1.49,0,0,1,.09.41c0,.17,0,.39,0,.66s0,.44,0,.6a4.23,4.23,0,0,1,0,.43,1.5,1.5,0,0,1-.1.3.91.91,0,0,1-.17.23,2.1,2.1,0,0,1-.57.31,10.17,10.17,0,0,1-1.19.37,14.25,14.25,0,0,1-1.65.32,12.6,12.6,0,0,1-2,.14,10.53,10.53,0,0,1-3.35-.48,5.71,5.71,0,0,1-3.84-3.94,11.43,11.43,0,0,1-.48-3.5,11.16,11.16,0,0,1,.5-3.44A7.12,7.12,0,0,1,124.83,24a6.31,6.31,0,0,1,2.3-1.63,8.92,8.92,0,0,1,6.14,0,5.52,5.52,0,0,1,2.09,1.47A6,6,0,0,1,136.57,26a9.51,9.51,0,0,1,.38,2.79ZM133,28.31a4.16,4.16,0,0,0-.69-2.68,2.63,2.63,0,0,0-2.25-1,3,3,0,0,0-1.35.29,2.64,2.64,0,0,0-.94.78,3.33,3.33,0,0,0-.58,1.16,5.34,5.34,0,0,0-.23,1.42Z"/><path class="cls-4" d="M144.63,17.87a2.22,2.22,0,0,1-.5,1.68,3.91,3.91,0,0,1-3.68,0A2.18,2.18,0,0,1,140,18a2.36,2.36,0,0,1,.49-1.7,2.76,2.76,0,0,1,1.86-.47,2.67,2.67,0,0,1,1.83.46A2.2,2.2,0,0,1,144.63,17.87Zm-.3,19.18a.48.48,0,0,1-.1.28.72.72,0,0,1-.33.2,3.24,3.24,0,0,1-.62.12c-.25,0-.58,0-1,0s-.72,0-1,0a3.27,3.27,0,0,1-.61-.12.72.72,0,0,1-.33-.2.42.42,0,0,1-.1-.28V22.75a.4.4,0,0,1,.1-.28.72.72,0,0,1,.33-.21,3.09,3.09,0,0,1,.61-.14,8.7,8.7,0,0,1,1-.05,8.43,8.43,0,0,1,1,.05,3,3,0,0,1,.62.14.72.72,0,0,1,.33.21.45.45,0,0,1,.1.28Z"/><path class="cls-4" d="M153.51,16.81a10,10,0,0,1-.06,1.14,5.64,5.64,0,0,1-.58,1.9,7.74,7.74,0,0,1-.56.91l-2.15,3.08a1.31,1.31,0,0,1-.25.27,1.06,1.06,0,0,1-.33.19,1.84,1.84,0,0,1-.47.1,4.41,4.41,0,0,1-.69,0,5.11,5.11,0,0,1-.75,0,1,1,0,0,1-.42-.11.26.26,0,0,1-.14-.22.68.68,0,0,1,.08-.31l2-4.43V16.81a2.73,2.73,0,0,1,.12-.89,1.07,1.07,0,0,1,.41-.52,1.65,1.65,0,0,1,.69-.24,7.11,7.11,0,0,1,1-.06,6.65,6.65,0,0,1,1,.06,1.61,1.61,0,0,1,.67.24,1,1,0,0,1,.38.52A2.73,2.73,0,0,1,153.51,16.81Z"/><path class="cls-4" d="M165.48,33a4.76,4.76,0,0,1-.46,2.15,4.23,4.23,0,0,1-1.29,1.56,5.77,5.77,0,0,1-2,.94,9.23,9.23,0,0,1-2.47.31,9.4,9.4,0,0,1-1.53-.12,8.16,8.16,0,0,1-1.31-.31,6.42,6.42,0,0,1-1-.37,2.72,2.72,0,0,1-.56-.36,1.1,1.1,0,0,1-.27-.53,4.19,4.19,0,0,1-.1-1.07,7.48,7.48,0,0,1,0-.75,2.58,2.58,0,0,1,.1-.45.39.39,0,0,1,.16-.22.48.48,0,0,1,.24-.06,1.23,1.23,0,0,1,.52.2,9.57,9.57,0,0,0,.86.44,10.15,10.15,0,0,0,1.2.45,5.28,5.28,0,0,0,1.55.21,4,4,0,0,0,1-.11,2.51,2.51,0,0,0,.74-.32,1.43,1.43,0,0,0,.48-.53,1.75,1.75,0,0,0,.16-.74,1.23,1.23,0,0,0-.3-.83,2.61,2.61,0,0,0-.79-.6,9,9,0,0,0-1.11-.48c-.41-.15-.83-.32-1.27-.5a10.58,10.58,0,0,1-1.26-.63,4.46,4.46,0,0,1-1.11-.86,4,4,0,0,1-.79-1.24,4.88,4.88,0,0,1,.1-3.62,4.06,4.06,0,0,1,1.16-1.47,5.34,5.34,0,0,1,1.84-.95,9.17,9.17,0,0,1,4.89,0,6.59,6.59,0,0,1,.87.31,2.77,2.77,0,0,1,.5.29.69.69,0,0,1,.22.24,1.1,1.1,0,0,1,.1.29,3.47,3.47,0,0,1,.05.42,5.22,5.22,0,0,1,0,.62,6.54,6.54,0,0,1,0,.7,1.51,1.51,0,0,1-.08.44.29.29,0,0,1-.15.21.4.4,0,0,1-.22.06,1.11,1.11,0,0,1-.45-.17c-.21-.11-.46-.23-.77-.36a8.16,8.16,0,0,0-1.06-.36,5.19,5.19,0,0,0-1.37-.17,3.82,3.82,0,0,0-1,.11,2,2,0,0,0-.66.32,1.36,1.36,0,0,0-.38.49,1.39,1.39,0,0,0-.13.61,1.19,1.19,0,0,0,.3.83,2.85,2.85,0,0,0,.81.6,9.36,9.36,0,0,0,1.13.48c.42.15.85.31,1.29.49a11.56,11.56,0,0,1,1.28.62,4.76,4.76,0,0,1,1.13.86A4,4,0,0,1,165.48,33Z"/><path class="cls-5" d="M189.71,40.2A19.85,19.85,0,0,1,183,39.11a14,14,0,0,1-8.59-8.53,19.39,19.39,0,0,1-1.11-6.71,19.58,19.58,0,0,1,1.18-6.94,15.35,15.35,0,0,1,3.43-5.41,14.84,14.84,0,0,1,5.37-3.42A19,19,0,0,1,190,6.94a21.78,21.78,0,0,1,3.66.28,20.39,20.39,0,0,1,2.92.68,11.89,11.89,0,0,1,2.24.94,6.18,6.18,0,0,1,1.53,1.1,3.91,3.91,0,0,1,1,1.86,9.24,9.24,0,0,1,.19,2.12,12.94,12.94,0,0,1-.07,1.34,5.63,5.63,0,0,1-.27,1.2,2.87,2.87,0,0,1-1,1.36,2.69,2.69,0,0,1-1.65.56,3.88,3.88,0,0,1-2.05-.72,12.56,12.56,0,0,0-1.39-.7,15.7,15.7,0,0,0-2.18-.74,11.17,11.17,0,0,0-2.78-.31,7.16,7.16,0,0,0-2.82.53,5.87,5.87,0,0,0-2.07,1.45,6.88,6.88,0,0,0-1.35,2.36,9.86,9.86,0,0,0-.51,3.28A10.77,10.77,0,0,0,184,27a6.41,6.41,0,0,0,1.33,2.31,5.13,5.13,0,0,0,2,1.31,7.59,7.59,0,0,0,2.77.48A5.87,5.87,0,0,0,191.4,31h.06V28.11h-3.14a2.81,2.81,0,0,1-2.58-1.77,6.33,6.33,0,0,1-.4-2.53,11.84,11.84,0,0,1,.07-1.3,4.67,4.67,0,0,1,.33-1.24,3,3,0,0,1,.91-1.21,2.73,2.73,0,0,1,1.67-.58h9.46a3.7,3.7,0,0,1,1.48.31,3.35,3.35,0,0,1,1.24.92,3.73,3.73,0,0,1,.74,1.32,4.71,4.71,0,0,1,.21,1.43V34.6a4.73,4.73,0,0,1-.43,2,3.77,3.77,0,0,1-2.08,1.86c-.54.21-1.17.43-1.94.65s-1.54.41-2.35.57-1.62.27-2.45.35S190.53,40.2,189.71,40.2Z"/><path class="cls-5" d="M207.53,39.85c-.6,0-1.11,0-1.54-.06a6.63,6.63,0,0,1-1.32-.27,3.07,3.07,0,0,1-1.42-1,2.74,2.74,0,0,1-.6-1.73V17.54a2.8,2.8,0,0,1,1.88-2.67,5,5,0,0,1,1.24-.29,10.73,10.73,0,0,1,1.37-.07,11,11,0,0,1,1.4.07,4.47,4.47,0,0,1,1.31.33,3,3,0,0,1,.84.52l.26-.18a6.15,6.15,0,0,1,1.86-.87,6.68,6.68,0,0,1,1.77-.24c.25,0,.53,0,.82,0a8,8,0,0,1,.92.15,9.17,9.17,0,0,1,.9.26,3.26,3.26,0,0,1,1.07.63,2.9,2.9,0,0,1,.72,1,3.65,3.65,0,0,1,.22.79,7.1,7.1,0,0,1,.1,1c0,.33,0,.78,0,1.34s0,1.08-.05,1.46a6.69,6.69,0,0,1-.22,1.23,2.89,2.89,0,0,1-1,1.47,2.73,2.73,0,0,1-1.68.55,3.18,3.18,0,0,1-1.11-.2l-.42-.14-.43-.11a.82.82,0,0,0-.22,0l-.1,0a1.92,1.92,0,0,0-.4.26,4.8,4.8,0,0,0-.7.72c-.2.24-.41.54-.64.88V36.83a2.71,2.71,0,0,1-.61,1.73,3.05,3.05,0,0,1-1.43,1,6.41,6.41,0,0,1-1.3.27C208.65,39.83,208.13,39.85,207.53,39.85Z"/><path class="cls-5" d="M228.94,40.22a15,15,0,0,1-5.23-.85,10.08,10.08,0,0,1-4-2.64,10.76,10.76,0,0,1-2.34-4.18,18,18,0,0,1-.7-5.17,16.75,16.75,0,0,1,.77-5.18,11.7,11.7,0,0,1,2.43-4.29A11,11,0,0,1,224,15.1a14.41,14.41,0,0,1,5.45-1,15.1,15.1,0,0,1,5.25.84,10.06,10.06,0,0,1,4,2.63A10.93,10.93,0,0,1,241,21.79a17.78,17.78,0,0,1,.7,5.2,16.86,16.86,0,0,1-.75,5.15,11.62,11.62,0,0,1-2.42,4.29,10.94,10.94,0,0,1-4.11,2.84A14.7,14.7,0,0,1,228.94,40.22Zm.29-17.45a2.7,2.7,0,0,0-1.18.22,1.58,1.58,0,0,0-.65.58,4,4,0,0,0-.56,1.34,9.17,9.17,0,0,0-.24,2.23,11.3,11.3,0,0,0,.2,2.2,4.41,4.41,0,0,0,.5,1.4,1.54,1.54,0,0,0,.61.58,3.37,3.37,0,0,0,2.42,0,1.63,1.63,0,0,0,.67-.58,3.72,3.72,0,0,0,.53-1.3,9.92,9.92,0,0,0,.23-2.25,12.5,12.5,0,0,0-.19-2.22,4.16,4.16,0,0,0-.49-1.37,1.73,1.73,0,0,0-.64-.62A2.75,2.75,0,0,0,229.23,22.77Z"/><path class="cls-5" d="M250.79,40.22a9.87,9.87,0,0,1-4.28-.86,7.83,7.83,0,0,1-3-2.44A9.28,9.28,0,0,1,242,33.54a18.1,18.1,0,0,1-.41-4.19V17.54a2.78,2.78,0,0,1,.53-1.66,2.9,2.9,0,0,1,1.47-1,5.66,5.66,0,0,1,1.33-.27,13.47,13.47,0,0,1,1.53-.07,13.31,13.31,0,0,1,1.54.07,6.16,6.16,0,0,1,1.32.26,3.06,3.06,0,0,1,1.42,1,2.71,2.71,0,0,1,.61,1.73v10.9a8.35,8.35,0,0,0,.13,1.8,1.7,1.7,0,0,0,.27.65.6.6,0,0,0,.22.2,1.11,1.11,0,0,0,.46.07,1.48,1.48,0,0,0,.82-.34,9.35,9.35,0,0,0,1.35-1.26v-12a2.78,2.78,0,0,1,.53-1.66,3,3,0,0,1,1.47-1,6.16,6.16,0,0,1,1.32-.26,17,17,0,0,1,3.08,0,5.56,5.56,0,0,1,1.33.27,3.05,3.05,0,0,1,1.39,1,2.7,2.7,0,0,1,.6,1.73V36.83a2.84,2.84,0,0,1-.47,1.58,2.94,2.94,0,0,1-1.38,1.08,5.27,5.27,0,0,1-1.24.29,13.93,13.93,0,0,1-2.79,0,4.62,4.62,0,0,1-1.28-.31,3,3,0,0,1-1.14-.8c-.25.16-.51.31-.76.44A9.45,9.45,0,0,1,250.79,40.22Z"/><path class="cls-5" d="M270.32,47.58a11.89,11.89,0,0,1-1.59-.09,5.69,5.69,0,0,1-1.33-.3,3.08,3.08,0,0,1-1.4-1,2.76,2.76,0,0,1-.56-1.68V17.54a2.81,2.81,0,0,1,1.84-2.66,5.21,5.21,0,0,1,1.25-.3,11,11,0,0,1,1.38-.07,10.5,10.5,0,0,1,1.35.07,5.18,5.18,0,0,1,1.26.3,3.09,3.09,0,0,1,1.2.84c.26-.16.52-.31.79-.45a9.38,9.38,0,0,1,2.24-.85,10.49,10.49,0,0,1,2.42-.28,9.42,9.42,0,0,1,4.66,1.11,8.88,8.88,0,0,1,3.19,3,12.3,12.3,0,0,1,1.67,4.08,20.42,20.42,0,0,1,.49,4.58,20,20,0,0,1-.63,5.2,12.58,12.58,0,0,1-1.95,4.23,9.28,9.28,0,0,1-3.43,2.89,10.26,10.26,0,0,1-4.57,1,8.77,8.77,0,0,1-2-.22,7.44,7.44,0,0,1-1.36-.44v4.93a2.82,2.82,0,0,1-.57,1.69,3.14,3.14,0,0,1-1.4,1,5.69,5.69,0,0,1-1.33.3A11.89,11.89,0,0,1,270.32,47.58Zm4.89-17.95a8.73,8.73,0,0,0,1.33,1.29,1.31,1.31,0,0,0,.85.35.78.78,0,0,0,.54-.13,2,2,0,0,0,.59-.7,4.88,4.88,0,0,0,.49-1.38,8.86,8.86,0,0,0,.18-1.77,13.14,13.14,0,0,0-.15-2,5.32,5.32,0,0,0-.43-1.41,1.64,1.64,0,0,0-.51-.63.94.94,0,0,0-.53-.12,1.35,1.35,0,0,0-.44.07,2.09,2.09,0,0,0-.52.26,5.69,5.69,0,0,0-.8.68c-.19.19-.39.42-.6.67Z"/><path class="cls-6" d="M199.35,13.92a8.51,8.51,0,0,1,0,1.08,4,4,0,0,1-.15.73.8.8,0,0,1-.24.38.52.52,0,0,1-.33.11,2.11,2.11,0,0,1-.91-.39A14.87,14.87,0,0,0,196,15a18.6,18.6,0,0,0-2.47-.84,12.9,12.9,0,0,0-3.35-.39,9.2,9.2,0,0,0-3.67.7,8,8,0,0,0-2.81,2,8.88,8.88,0,0,0-1.8,3.1,12,12,0,0,0-.63,4,13,13,0,0,0,.64,4.23,8.71,8.71,0,0,0,1.79,3.06,7.37,7.37,0,0,0,2.75,1.86,9.93,9.93,0,0,0,3.56.62,8.47,8.47,0,0,0,1.88-.21,7,7,0,0,0,1.73-.65V26h-5.3c-.26,0-.46-.16-.6-.49a4.28,4.28,0,0,1-.22-1.65,7.16,7.16,0,0,1,.06-1,2.45,2.45,0,0,1,.16-.66,1,1,0,0,1,.26-.37.52.52,0,0,1,.34-.12h9.46a1.48,1.48,0,0,1,.61.12,1.38,1.38,0,0,1,.48.36,1.57,1.57,0,0,1,.31.57,2.6,2.6,0,0,1,.11.77V34.6a2.73,2.73,0,0,1-.23,1.14,1.59,1.59,0,0,1-.93.76,18.27,18.27,0,0,1-1.74.59c-.69.2-1.41.37-2.15.52s-1.49.25-2.25.32-1.52.11-2.28.11a17.48,17.48,0,0,1-6-1,11.76,11.76,0,0,1-7.3-7.25,17,17,0,0,1-1-6,17.32,17.32,0,0,1,1-6.17,12.92,12.92,0,0,1,2.94-4.65,12.55,12.55,0,0,1,4.6-2.93,16.78,16.78,0,0,1,6-1,19.73,19.73,0,0,1,3.31.25,19.19,19.19,0,0,1,2.61.6,10.77,10.77,0,0,1,1.85.77,4.38,4.38,0,0,1,1,.72,1.75,1.75,0,0,1,.43.85A8.25,8.25,0,0,1,199.35,13.92Z"/><path class="cls-6" d="M217.2,19.33c0,.52,0,.94,0,1.28a4.8,4.8,0,0,1-.13.78.8.8,0,0,1-.23.38.52.52,0,0,1-.36.11,1.24,1.24,0,0,1-.39-.07l-.48-.17-.6-.16a3.17,3.17,0,0,0-.71-.07,2.42,2.42,0,0,0-.91.18,3.69,3.69,0,0,0-.94.57,6.74,6.74,0,0,0-1,1,17.08,17.08,0,0,0-1.13,1.6v12a.65.65,0,0,1-.13.38,1.05,1.05,0,0,1-.45.27,4.21,4.21,0,0,1-.83.16,17.45,17.45,0,0,1-2.64,0,4.36,4.36,0,0,1-.83-.16,1,1,0,0,1-.44-.27.58.58,0,0,1-.13-.38V17.54a.67.67,0,0,1,.1-.38.84.84,0,0,1,.39-.27,2.91,2.91,0,0,1,.73-.17,11,11,0,0,1,1.11,0c.46,0,.84,0,1.15,0a2.46,2.46,0,0,1,.7.17.74.74,0,0,1,.36.27.68.68,0,0,1,.11.38v2.4a16,16,0,0,1,1.42-1.79A8.06,8.06,0,0,1,212.16,17a3.94,3.94,0,0,1,1.21-.58,5,5,0,0,1,1.21-.16l.61,0c.21,0,.44.06.67.11a3.59,3.59,0,0,1,.6.18,1.1,1.1,0,0,1,.38.2.69.69,0,0,1,.18.24,3.11,3.11,0,0,1,.09.36,5.74,5.74,0,0,1,.07.68C217.19,18.4,217.2,18.81,217.2,19.33Z"/><path class="cls-6" d="M239.52,27a14.87,14.87,0,0,1-.65,4.5,9.48,9.48,0,0,1-2,3.5,8.7,8.7,0,0,1-3.31,2.27,12.43,12.43,0,0,1-4.65.8,12.86,12.86,0,0,1-4.47-.71,8.12,8.12,0,0,1-3.16-2.08,8.42,8.42,0,0,1-1.86-3.35,15.4,15.4,0,0,1-.61-4.54,14.58,14.58,0,0,1,.66-4.51,9.52,9.52,0,0,1,2-3.51,9,9,0,0,1,3.3-2.26,12.42,12.42,0,0,1,4.64-.8,13,13,0,0,1,4.5.71,7.76,7.76,0,0,1,3.15,2.06,8.86,8.86,0,0,1,1.85,3.35A15.87,15.87,0,0,1,239.52,27Zm-5.6.21a14.19,14.19,0,0,0-.23-2.62,6.09,6.09,0,0,0-.77-2.09,4,4,0,0,0-1.43-1.39,5.39,5.39,0,0,0-4.38-.05,3.84,3.84,0,0,0-1.5,1.3,6.07,6.07,0,0,0-.87,2,11.32,11.32,0,0,0-.3,2.74,13.45,13.45,0,0,0,.24,2.63,6.57,6.57,0,0,0,.77,2.08,3.68,3.68,0,0,0,1.44,1.38,5.47,5.47,0,0,0,4.39,0A3.78,3.78,0,0,0,232.77,32a5.93,5.93,0,0,0,.87-2A12.49,12.49,0,0,0,233.92,27.2Z"/><path class="cls-6" d="M262.12,36.83a.7.7,0,0,1-.1.38.89.89,0,0,1-.38.27,3.25,3.25,0,0,1-.72.16,8.64,8.64,0,0,1-1.11,0,9.3,9.3,0,0,1-1.16,0,3,3,0,0,1-.7-.16.85.85,0,0,1-.37-.27.7.7,0,0,1-.11-.38V34.6a12.33,12.33,0,0,1-3.25,2.6,7.42,7.42,0,0,1-3.43.86,7.56,7.56,0,0,1-3.34-.65,5.8,5.8,0,0,1-2.19-1.77A7.25,7.25,0,0,1,244.07,33a16.45,16.45,0,0,1-.35-3.68V17.54a.62.62,0,0,1,.12-.38.84.84,0,0,1,.43-.27,3.62,3.62,0,0,1,.84-.17c.35,0,.79,0,1.31,0s1,0,1.32,0a3.52,3.52,0,0,1,.83.17,1,1,0,0,1,.45.27.62.62,0,0,1,.13.38v10.9a10.39,10.39,0,0,0,.19,2.31,4,4,0,0,0,.6,1.37,2.62,2.62,0,0,0,1,.89,3.12,3.12,0,0,0,1.44.31,3.59,3.59,0,0,0,2.09-.75,12.77,12.77,0,0,0,2.24-2.21V17.54a.68.68,0,0,1,.11-.38.88.88,0,0,1,.44-.27,3.52,3.52,0,0,1,.83-.17c.35,0,.79,0,1.32,0s1,0,1.32,0a3.43,3.43,0,0,1,.82.17.89.89,0,0,1,.43.27.57.57,0,0,1,.13.38Z"/><path class="cls-6" d="M287,26.9a18.34,18.34,0,0,1-.55,4.64,10.68,10.68,0,0,1-1.61,3.52,7.24,7.24,0,0,1-2.64,2.22,8.09,8.09,0,0,1-3.62.78,6.74,6.74,0,0,1-1.54-.16,5.71,5.71,0,0,1-1.36-.5,8.17,8.17,0,0,1-1.31-.83,13.65,13.65,0,0,1-1.34-1.17v9.09a.65.65,0,0,1-.13.38,1,1,0,0,1-.45.3,3.46,3.46,0,0,1-.83.18,12.48,12.48,0,0,1-2.64,0,3.58,3.58,0,0,1-.83-.18.9.9,0,0,1-.44-.3.58.58,0,0,1-.13-.38V17.54a.67.67,0,0,1,.1-.38.81.81,0,0,1,.38-.27,2.72,2.72,0,0,1,.72-.17,11,11,0,0,1,1.11,0,10.82,10.82,0,0,1,1.09,0,2.72,2.72,0,0,1,.72.17.73.73,0,0,1,.37.27.61.61,0,0,1,.11.38v2.27a19,19,0,0,1,1.66-1.53,9.66,9.66,0,0,1,1.65-1.1,7.08,7.08,0,0,1,1.74-.66,7.9,7.9,0,0,1,1.92-.22,7.27,7.27,0,0,1,3.61.84,6.72,6.72,0,0,1,2.43,2.28,10.21,10.21,0,0,1,1.38,3.37A19.19,19.19,0,0,1,287,26.9Zm-5.67.39a15.18,15.18,0,0,0-.18-2.37,7,7,0,0,0-.63-2,3.91,3.91,0,0,0-1.17-1.42,3,3,0,0,0-1.8-.53,3.91,3.91,0,0,0-1.07.16,4.37,4.37,0,0,0-1.09.53,8.39,8.39,0,0,0-1.13,1,13,13,0,0,0-1.23,1.45V30.4a12.3,12.3,0,0,0,2.18,2.24,3.49,3.49,0,0,0,2.16.79,3,3,0,0,0,1.81-.54,4.13,4.13,0,0,0,1.22-1.42,7,7,0,0,0,.7-2A10.37,10.37,0,0,0,281.35,27.29Z"/></g></svg>